<svg width="25.000002" height="25.000000" viewBox="0 0 25 25" fill="none" xmlns="http://www.w3.org/2000/svg" xmlns:xlink="http://www.w3.org/1999/xlink">
	<desc>
			Created with Pixso.
	</desc>
	<defs/>
	<path id="Icon" d="M6.93 23.49L5.41 25L0 19.75L3.88 15.93C4.66 15.15 5.66 14.6 6.74 14.36C7.82 14.11 8.96 14.17 10.01 14.54L10.86 14.83L16.09 14.83C16.31 14.83 16.53 14.88 16.74 14.96C16.94 15.05 17.12 15.17 17.28 15.33C17.43 15.49 17.55 15.67 17.63 15.88C17.71 16.08 17.75 16.3 17.74 16.52C17.72 16.96 17.53 17.37 17.21 17.66C16.88 17.96 16.46 18.12 16.02 18.11L12.88 18.11C12.71 18.11 12.55 18.18 12.43 18.3C12.31 18.42 12.24 18.58 12.24 18.75C12.24 18.92 12.31 19.08 12.43 19.2C12.55 19.32 12.71 19.39 12.88 19.39L16.03 19.39C16.8 19.39 17.54 19.1 18.1 18.58C18.66 18.06 19 17.34 19.04 16.58C19.04 16.56 19.04 16.55 19.04 16.54L21.95 13.28C22.25 12.94 22.66 12.72 23.11 12.68C23.57 12.64 24.02 12.77 24.37 13.04C24.55 13.19 24.7 13.37 24.8 13.57C24.91 13.77 24.97 13.99 24.99 14.22C25.01 14.45 24.98 14.67 24.91 14.89C24.84 15.11 24.72 15.31 24.57 15.48L18.75 22.11C18.37 22.55 17.9 22.9 17.36 23.14C16.83 23.38 16.25 23.5 15.67 23.5L6.93 23.49ZM18.94 9.07C18.94 8.75 18.82 8.44 18.59 8.21C18.36 7.98 18.05 7.85 17.72 7.85L15.93 7.85L15.93 6.07C15.91 5.76 15.78 5.46 15.55 5.25C15.32 5.03 15.02 4.91 14.71 4.91C14.39 4.91 14.09 5.03 13.86 5.25C13.64 5.46 13.5 5.76 13.49 6.07L13.49 7.85L11.69 7.85C11.52 7.85 11.36 7.87 11.2 7.93C11.05 7.99 10.91 8.08 10.79 8.19C10.67 8.3 10.58 8.44 10.51 8.59C10.45 8.74 10.41 8.9 10.41 9.07C10.41 9.23 10.45 9.39 10.51 9.54C10.58 9.69 10.67 9.83 10.79 9.94C10.91 10.05 11.05 10.14 11.2 10.2C11.36 10.26 11.52 10.28 11.69 10.28L13.49 10.28L13.49 12.06C13.5 12.37 13.64 12.67 13.86 12.88C14.09 13.1 14.39 13.22 14.71 13.22C15.02 13.22 15.32 13.1 15.55 12.88C15.78 12.67 15.91 12.37 15.93 12.06L15.93 10.28L17.72 10.28C18.05 10.28 18.36 10.15 18.59 9.92C18.81 9.69 18.94 9.39 18.94 9.07ZM7.24 2.35L7.24 3.67L5.92 3.67C5.68 3.67 5.45 3.76 5.28 3.93C5.12 4.1 5.02 4.32 5.02 4.56C5.02 4.8 5.12 5.03 5.28 5.19C5.45 5.36 5.68 5.45 5.92 5.45L7.25 5.45L7.25 6.77C7.25 7.01 7.34 7.23 7.51 7.4C7.68 7.57 7.91 7.66 8.15 7.66C8.38 7.66 8.61 7.57 8.78 7.4C8.95 7.23 9.04 7.01 9.04 6.77L9.04 5.45L10.36 5.45C10.6 5.45 10.83 5.35 11 5.19C11.17 5.02 11.26 4.79 11.26 4.56C11.26 4.32 11.17 4.09 11 3.92C10.83 3.76 10.6 3.66 10.36 3.66L9.04 3.66L9.04 2.35C9.04 2.12 8.94 1.89 8.77 1.72C8.6 1.55 8.38 1.46 8.14 1.46C7.9 1.46 7.67 1.55 7.5 1.72C7.33 1.89 7.24 2.12 7.24 2.35L7.24 2.35ZM18.59 0C18.38 0 18.19 0.08 18.04 0.22C17.9 0.36 17.82 0.56 17.82 0.76L17.82 1.89L16.68 1.89C16.47 1.89 16.28 1.97 16.13 2.12C15.99 2.26 15.9 2.46 15.9 2.66C15.9 2.86 15.99 3.06 16.13 3.2C16.28 3.34 16.47 3.42 16.68 3.42L17.82 3.42L17.82 4.56C17.82 4.76 17.9 4.95 18.04 5.1C18.19 5.24 18.38 5.32 18.59 5.32C18.79 5.32 18.99 5.24 19.13 5.1C19.28 4.95 19.36 4.76 19.36 4.56L19.36 3.42L20.5 3.42C20.6 3.42 20.7 3.4 20.79 3.37C20.89 3.33 20.97 3.27 21.04 3.2C21.12 3.13 21.17 3.04 21.21 2.95C21.25 2.86 21.27 2.76 21.27 2.66C21.27 2.56 21.25 2.46 21.21 2.37C21.17 2.27 21.12 2.19 21.04 2.12C20.97 2.05 20.89 1.99 20.79 1.95C20.7 1.91 20.6 1.89 20.5 1.89L19.36 1.89L19.36 0.76C19.36 0.56 19.28 0.36 19.13 0.22C18.99 0.08 18.79 0 18.59 0Z" fill="#FFFFFF" fill-opacity="1.000000" fill-rule="nonzero"/>
</svg>
