<svg width="21.000000" height="25.000000" viewBox="0 0 21 25" fill="none" xmlns="http://www.w3.org/2000/svg" xmlns:xlink="http://www.w3.org/1999/xlink">
	<desc>
			Created with Pixso.
	</desc>
	<defs/>
	<path id="Icon" d="M4.08 0L19.95 0L16.89 3.36L1.02 3.36L4.08 0ZM18.01 23.78L21 20.49L21 1.19L18.01 4.47L18.01 23.78ZM16.47 4.99L16.47 25L12.64 25L12.64 23.81C12.64 22.32 11.47 21.1 10.05 21.1L6.42 21.1C5 21.1 3.83 22.32 3.83 23.81L3.83 25L0 25L0 4.99L16.47 4.99ZM6.61 9.92C6.57 10.02 6.56 10.13 6.56 10.23L6.56 11.94C6.56 12.04 6.58 12.14 6.61 12.24C6.65 12.34 6.71 12.43 6.78 12.51C6.85 12.58 6.93 12.65 7.03 12.69C7.12 12.73 7.22 12.75 7.33 12.75L8.95 12.75C9.05 12.75 9.16 12.73 9.25 12.69C9.34 12.65 9.43 12.58 9.5 12.51C9.57 12.43 9.62 12.34 9.66 12.24C9.7 12.14 9.72 12.04 9.72 11.94L9.72 10.23C9.72 10.13 9.7 10.02 9.66 9.92C9.62 9.82 9.57 9.73 9.5 9.66C9.43 9.58 9.34 9.52 9.25 9.48C9.16 9.44 9.05 9.42 8.95 9.42L7.33 9.42C7.22 9.42 7.12 9.44 7.03 9.48C6.93 9.52 6.85 9.58 6.78 9.66C6.71 9.73 6.65 9.82 6.61 9.92ZM4.49 12.55C4.53 12.45 4.54 12.34 4.54 12.23L4.54 10.33C4.54 10.22 4.53 10.12 4.49 10.02C4.45 9.92 4.4 9.83 4.32 9.76C4.25 9.68 4.17 9.61 4.07 9.57C3.98 9.53 3.88 9.51 3.78 9.51L1.96 9.51C1.86 9.51 1.75 9.53 1.66 9.57C1.57 9.61 1.48 9.68 1.41 9.76C1.34 9.83 1.28 9.92 1.25 10.02C1.21 10.12 1.19 10.22 1.19 10.33L1.19 12.23C1.19 12.34 1.21 12.45 1.25 12.55C1.28 12.65 1.34 12.74 1.41 12.81C1.48 12.89 1.57 12.94 1.66 12.98C1.75 13.02 1.86 13.04 1.96 13.04L3.78 13.04C3.88 13.04 3.98 13.02 4.07 12.98C4.17 12.94 4.25 12.89 4.32 12.81C4.4 12.74 4.45 12.65 4.49 12.55ZM11.98 10.02C11.94 10.12 11.92 10.22 11.92 10.33L11.92 12.23C11.92 12.34 11.94 12.45 11.98 12.55C12.02 12.65 12.07 12.74 12.14 12.81C12.22 12.89 12.3 12.94 12.39 12.98C12.49 13.02 12.59 13.04 12.69 13.04L14.51 13.04C14.61 13.04 14.72 13.02 14.81 12.98C14.9 12.94 14.99 12.89 15.06 12.81C15.13 12.74 15.18 12.65 15.22 12.55C15.26 12.45 15.28 12.34 15.28 12.23L15.28 10.33C15.28 10.22 15.26 10.12 15.22 10.02C15.18 9.92 15.13 9.83 15.06 9.76C14.99 9.68 14.9 9.61 14.81 9.57C14.72 9.53 14.61 9.51 14.51 9.51L12.69 9.51C12.59 9.51 12.49 9.53 12.39 9.57C12.3 9.61 12.22 9.68 12.14 9.76C12.07 9.83 12.02 9.92 11.98 10.02ZM9.71 17.9C9.75 17.81 9.77 17.71 9.77 17.6L9.77 15.84C9.77 15.74 9.75 15.63 9.71 15.53C9.67 15.43 9.62 15.34 9.55 15.27C9.48 15.19 9.39 15.13 9.3 15.09C9.2 15.05 9.1 15.03 9 15.03L7.32 15.03C7.22 15.03 7.12 15.05 7.03 15.09C6.93 15.13 6.85 15.19 6.78 15.27C6.71 15.34 6.65 15.43 6.61 15.53C6.57 15.63 6.56 15.74 6.56 15.84L6.56 17.6C6.56 17.71 6.57 17.81 6.61 17.9C6.65 18 6.71 18.09 6.78 18.17C6.85 18.24 6.93 18.31 7.03 18.35C7.12 18.39 7.22 18.41 7.32 18.41L9 18.41C9.1 18.41 9.2 18.39 9.3 18.35C9.39 18.31 9.48 18.24 9.55 18.17C9.62 18.09 9.67 18 9.71 17.9ZM4.49 18.16C4.53 18.06 4.54 17.95 4.54 17.84L4.54 15.95C4.54 15.84 4.53 15.73 4.49 15.63C4.45 15.53 4.4 15.44 4.32 15.37C4.25 15.29 4.17 15.24 4.07 15.19C3.98 15.15 3.88 15.13 3.78 15.13L1.96 15.13C1.86 15.13 1.75 15.15 1.66 15.19C1.57 15.24 1.48 15.29 1.41 15.37C1.34 15.44 1.28 15.53 1.25 15.63C1.21 15.73 1.19 15.84 1.19 15.95L1.19 17.84C1.19 17.95 1.21 18.06 1.25 18.16C1.28 18.26 1.34 18.35 1.41 18.42C1.48 18.5 1.57 18.55 1.66 18.59C1.75 18.63 1.86 18.65 1.96 18.65L3.78 18.65C3.88 18.65 3.98 18.63 4.07 18.59C4.17 18.55 4.25 18.5 4.32 18.42C4.4 18.35 4.45 18.26 4.49 18.16ZM12.15 18.42C12.22 18.5 12.3 18.55 12.39 18.59C12.49 18.63 12.59 18.65 12.69 18.65L14.51 18.65C14.61 18.65 14.72 18.63 14.81 18.59C14.9 18.55 14.99 18.5 15.06 18.42C15.13 18.35 15.18 18.26 15.22 18.16C15.26 18.06 15.28 17.95 15.28 17.84L15.28 15.95C15.28 15.84 15.26 15.73 15.22 15.63C15.18 15.53 15.13 15.44 15.06 15.37C14.99 15.29 14.9 15.24 14.81 15.19C14.72 15.15 14.61 15.13 14.51 15.13L12.69 15.13C12.59 15.13 12.49 15.15 12.39 15.19C12.3 15.24 12.22 15.29 12.15 15.37C12.07 15.44 12.02 15.53 11.98 15.63C11.94 15.73 11.92 15.84 11.92 15.95L11.92 17.84C11.92 17.95 11.94 18.06 11.98 18.16C12.02 18.26 12.07 18.35 12.15 18.42ZM5.37 23.81C5.37 23.21 5.84 22.72 6.42 22.72L10.05 22.72C10.64 22.72 11.1 23.21 11.1 23.81L11.1 24.99L5.37 24.99L5.37 23.81Z" fill="#FFFFFF" fill-opacity="1.000000" fill-rule="evenodd"/>
</svg>
