<svg width="27.004089" height="27.004028" viewBox="0 0 27.0041 27.004" fill="none" xmlns="http://www.w3.org/2000/svg" xmlns:xlink="http://www.w3.org/1999/xlink">
	<desc>
			Created with Pixso.
	</desc>
	<defs/>
	<path id="Icon" d="M6.98 21.85Q8.99 22.68 11.34 22.68Q13.69 22.68 15.69 21.85Q17.27 21.2 18.63 20.04L25.29 26.7C25.68 27.1 26.31 27.1 26.7 26.7C27.1 26.31 27.1 25.68 26.7 25.29L20.04 18.63Q21.2 17.27 21.85 15.7Q22.68 13.69 22.68 11.34Q22.68 8.99 21.85 6.98Q21.02 4.98 19.36 3.32Q17.7 1.66 15.69 0.83Q13.69 0 11.34 0Q8.99 0 6.98 0.83Q4.98 1.66 3.32 3.32Q1.66 4.98 0.83 6.98Q0 8.99 0 11.34Q0 13.69 0.83 15.7Q1.66 17.7 3.32 19.36Q4.98 21.02 6.98 21.85ZM14.93 20Q13.28 20.68 11.34 20.68Q9.4 20.68 7.75 20Q6.1 19.32 4.73 17.95Q3.36 16.58 2.68 14.93Q2 13.28 2 11.34Q2 9.4 2.68 7.75Q3.36 6.1 4.73 4.73Q6.1 3.36 7.75 2.68Q9.4 2 11.34 2Q13.28 2 14.93 2.68Q16.58 3.36 17.95 4.73Q19.32 6.1 20 7.75Q20.68 9.4 20.68 11.34Q20.68 13.28 20 14.93Q19.32 16.58 17.95 17.95Q16.58 19.32 14.93 20Z" fill="#FFFFFF" fill-opacity="1.000000" fill-rule="evenodd"/>
</svg>
